<mxfile host="app.diagrams.net" modified="2021-03-23T18:01:54.534Z" agent="5.0 (Windows NT 10.0; Win64; x64) AppleWebKit/537.36 (KHTML, like Gecko) Chrome/89.0.4389.90 Safari/537.36" etag="KKDV7qAWMUqNE4fSakAg" version="14.5.0" type="github">
  <diagram id="_cnKBvI-XlcnQFvucuMb" name="Page-1">
    <mxGraphModel dx="1422" dy="762" grid="1" gridSize="10" guides="1" tooltips="1" connect="1" arrows="1" fold="1" page="1" pageScale="1" pageWidth="1169" pageHeight="827" math="0" shadow="0">
      <root>
        <mxCell id="0" />
        <mxCell id="1" parent="0" />
        <mxCell id="Kes9Ymy6bMvkCFtG6t-n-166" value="" style="shape=folder;fontStyle=1;spacingTop=10;tabWidth=40;tabHeight=14;tabPosition=left;html=1;" vertex="1" parent="1">
          <mxGeometry x="20" width="550" height="360" as="geometry" />
        </mxCell>
        <mxCell id="Kes9Ymy6bMvkCFtG6t-n-164" value="" style="shape=folder;fontStyle=1;spacingTop=10;tabWidth=40;tabHeight=14;tabPosition=left;html=1;" vertex="1" parent="1">
          <mxGeometry x="605" y="10" width="550" height="280" as="geometry" />
        </mxCell>
        <mxCell id="Kes9Ymy6bMvkCFtG6t-n-162" value="" style="shape=folder;fontStyle=1;spacingTop=10;tabWidth=40;tabHeight=14;tabPosition=left;html=1;" vertex="1" parent="1">
          <mxGeometry x="585" y="343" width="570" height="187" as="geometry" />
        </mxCell>
        <mxCell id="Kes9Ymy6bMvkCFtG6t-n-160" value="" style="shape=folder;fontStyle=1;spacingTop=10;tabWidth=40;tabHeight=14;tabPosition=left;html=1;" vertex="1" parent="1">
          <mxGeometry x="10" y="390" width="420" height="420" as="geometry" />
        </mxCell>
        <mxCell id="Kes9Ymy6bMvkCFtG6t-n-146" value="" style="shape=folder;fontStyle=1;spacingTop=10;tabWidth=40;tabHeight=14;tabPosition=left;html=1;" vertex="1" parent="1">
          <mxGeometry x="540" y="560" width="510" height="245" as="geometry" />
        </mxCell>
        <mxCell id="Kes9Ymy6bMvkCFtG6t-n-1" value="Viande" style="swimlane;fontStyle=2;align=center;verticalAlign=top;childLayout=stackLayout;horizontal=1;startSize=26;horizontalStack=0;resizeParent=1;resizeLast=0;collapsible=1;marginBottom=0;rounded=0;shadow=0;strokeWidth=1;" vertex="1" parent="1">
          <mxGeometry x="550" y="594" width="160" height="55" as="geometry">
            <mxRectangle x="230" y="140" width="160" height="26" as="alternateBounds" />
          </mxGeometry>
        </mxCell>
        <mxCell id="Kes9Ymy6bMvkCFtG6t-n-2" value="+Provenance animal : String" style="text;align=left;verticalAlign=top;spacingLeft=4;spacingRight=4;overflow=hidden;rotatable=0;points=[[0,0.5],[1,0.5]];portConstraint=eastwest;" vertex="1" parent="Kes9Ymy6bMvkCFtG6t-n-1">
          <mxGeometry y="26" width="160" height="26" as="geometry" />
        </mxCell>
        <mxCell id="Kes9Ymy6bMvkCFtG6t-n-3" value="Fournisseur" style="swimlane;fontStyle=2;align=center;verticalAlign=top;childLayout=stackLayout;horizontal=1;startSize=26;horizontalStack=0;resizeParent=1;resizeLast=0;collapsible=1;marginBottom=0;rounded=0;shadow=0;strokeWidth=1;" vertex="1" parent="1">
          <mxGeometry x="20" y="426" width="300" height="209" as="geometry">
            <mxRectangle x="230" y="140" width="160" height="26" as="alternateBounds" />
          </mxGeometry>
        </mxCell>
        <mxCell id="Kes9Ymy6bMvkCFtG6t-n-4" value="- Id : int" style="text;align=left;verticalAlign=top;spacingLeft=4;spacingRight=4;overflow=hidden;rotatable=0;points=[[0,0.5],[1,0.5]];portConstraint=eastwest;fontStyle=4" vertex="1" parent="Kes9Ymy6bMvkCFtG6t-n-3">
          <mxGeometry y="26" width="300" height="26" as="geometry" />
        </mxCell>
        <mxCell id="Kes9Ymy6bMvkCFtG6t-n-5" value="+ Nom fournisseur : String" style="text;align=left;verticalAlign=top;spacingLeft=4;spacingRight=4;overflow=hidden;rotatable=0;points=[[0,0.5],[1,0.5]];portConstraint=eastwest;fontStyle=0" vertex="1" parent="Kes9Ymy6bMvkCFtG6t-n-3">
          <mxGeometry y="52" width="300" height="26" as="geometry" />
        </mxCell>
        <mxCell id="Kes9Ymy6bMvkCFtG6t-n-6" value="+ Pays : String" style="text;align=left;verticalAlign=top;spacingLeft=4;spacingRight=4;overflow=hidden;rotatable=0;points=[[0,0.5],[1,0.5]];portConstraint=eastwest;fontStyle=0" vertex="1" parent="Kes9Ymy6bMvkCFtG6t-n-3">
          <mxGeometry y="78" width="300" height="22" as="geometry" />
        </mxCell>
        <mxCell id="Kes9Ymy6bMvkCFtG6t-n-7" value="+ Nom de(s) produit(s) en commerce : Array&lt;String&gt;" style="text;align=left;verticalAlign=top;spacingLeft=4;spacingRight=4;overflow=hidden;rotatable=0;points=[[0,0.5],[1,0.5]];portConstraint=eastwest;fontStyle=0" vertex="1" parent="Kes9Ymy6bMvkCFtG6t-n-3">
          <mxGeometry y="100" width="300" height="22" as="geometry" />
        </mxCell>
        <mxCell id="Kes9Ymy6bMvkCFtG6t-n-8" value="+ Numéro de contact : String" style="text;align=left;verticalAlign=top;spacingLeft=4;spacingRight=4;overflow=hidden;rotatable=0;points=[[0,0.5],[1,0.5]];portConstraint=eastwest;fontStyle=0" vertex="1" parent="Kes9Ymy6bMvkCFtG6t-n-3">
          <mxGeometry y="122" width="300" height="28" as="geometry" />
        </mxCell>
        <mxCell id="Kes9Ymy6bMvkCFtG6t-n-9" value="+ Nom personne de contact : String" style="text;align=left;verticalAlign=top;spacingLeft=4;spacingRight=4;overflow=hidden;rotatable=0;points=[[0,0.5],[1,0.5]];portConstraint=eastwest;fontStyle=0" vertex="1" parent="Kes9Ymy6bMvkCFtG6t-n-3">
          <mxGeometry y="150" width="300" height="28" as="geometry" />
        </mxCell>
        <mxCell id="Kes9Ymy6bMvkCFtG6t-n-10" value="+ Adresse du fournisseur : String" style="text;align=left;verticalAlign=top;spacingLeft=4;spacingRight=4;overflow=hidden;rotatable=0;points=[[0,0.5],[1,0.5]];portConstraint=eastwest;fontStyle=0" vertex="1" parent="Kes9Ymy6bMvkCFtG6t-n-3">
          <mxGeometry y="178" width="300" height="28" as="geometry" />
        </mxCell>
        <mxCell id="Kes9Ymy6bMvkCFtG6t-n-11" value="Commande fournisseur" style="swimlane;fontStyle=2;align=center;verticalAlign=top;childLayout=stackLayout;horizontal=1;startSize=26;horizontalStack=0;resizeParent=1;resizeLast=0;collapsible=1;marginBottom=0;rounded=0;shadow=0;strokeWidth=1;" vertex="1" parent="1">
          <mxGeometry x="25" y="664" width="230" height="130" as="geometry">
            <mxRectangle x="230" y="140" width="160" height="26" as="alternateBounds" />
          </mxGeometry>
        </mxCell>
        <mxCell id="Kes9Ymy6bMvkCFtG6t-n-12" value="- Id : int" style="text;align=left;verticalAlign=top;spacingLeft=4;spacingRight=4;overflow=hidden;rotatable=0;points=[[0,0.5],[1,0.5]];portConstraint=eastwest;fontStyle=4" vertex="1" parent="Kes9Ymy6bMvkCFtG6t-n-11">
          <mxGeometry y="26" width="230" height="26" as="geometry" />
        </mxCell>
        <mxCell id="Kes9Ymy6bMvkCFtG6t-n-13" value="+ Nombre de produits : int" style="text;align=left;verticalAlign=top;spacingLeft=4;spacingRight=4;overflow=hidden;rotatable=0;points=[[0,0.5],[1,0.5]];portConstraint=eastwest;fontStyle=0" vertex="1" parent="Kes9Ymy6bMvkCFtG6t-n-11">
          <mxGeometry y="52" width="230" height="28" as="geometry" />
        </mxCell>
        <mxCell id="Kes9Ymy6bMvkCFtG6t-n-14" value="+ Produit(s) commandé(s) : Array&lt;String&gt;" style="text;align=left;verticalAlign=top;spacingLeft=4;spacingRight=4;overflow=hidden;rotatable=0;points=[[0,0.5],[1,0.5]];portConstraint=eastwest;fontStyle=0" vertex="1" parent="Kes9Ymy6bMvkCFtG6t-n-11">
          <mxGeometry y="80" width="230" height="20" as="geometry" />
        </mxCell>
        <mxCell id="Kes9Ymy6bMvkCFtG6t-n-15" value="+ Prix total: float" style="text;align=left;verticalAlign=top;spacingLeft=4;spacingRight=4;overflow=hidden;rotatable=0;points=[[0,0.5],[1,0.5]];portConstraint=eastwest;fontStyle=0" vertex="1" parent="Kes9Ymy6bMvkCFtG6t-n-11">
          <mxGeometry y="100" width="230" height="20" as="geometry" />
        </mxCell>
        <mxCell id="Kes9Ymy6bMvkCFtG6t-n-16" value="Livraison fournisseur" style="swimlane;fontStyle=2;align=center;verticalAlign=top;childLayout=stackLayout;horizontal=1;startSize=26;horizontalStack=0;resizeParent=1;resizeLast=0;collapsible=1;marginBottom=0;rounded=0;shadow=0;strokeWidth=1;" vertex="1" parent="1">
          <mxGeometry x="270" y="714" width="160" height="80" as="geometry">
            <mxRectangle x="230" y="140" width="160" height="26" as="alternateBounds" />
          </mxGeometry>
        </mxCell>
        <mxCell id="Kes9Ymy6bMvkCFtG6t-n-17" value="- Id : int" style="text;align=left;verticalAlign=top;spacingLeft=4;spacingRight=4;overflow=hidden;rotatable=0;points=[[0,0.5],[1,0.5]];portConstraint=eastwest;fontStyle=4" vertex="1" parent="Kes9Ymy6bMvkCFtG6t-n-16">
          <mxGeometry y="26" width="160" height="26" as="geometry" />
        </mxCell>
        <mxCell id="Kes9Ymy6bMvkCFtG6t-n-18" value="+ Date de livraison : Date" style="text;align=left;verticalAlign=top;spacingLeft=4;spacingRight=4;overflow=hidden;rotatable=0;points=[[0,0.5],[1,0.5]];portConstraint=eastwest;fontStyle=0" vertex="1" parent="Kes9Ymy6bMvkCFtG6t-n-16">
          <mxGeometry y="52" width="160" height="28" as="geometry" />
        </mxCell>
        <mxCell id="Kes9Ymy6bMvkCFtG6t-n-32" value="Employé" style="swimlane;fontStyle=2;align=center;verticalAlign=top;childLayout=stackLayout;horizontal=1;startSize=26;horizontalStack=0;resizeParent=1;resizeLast=0;collapsible=1;marginBottom=0;rounded=0;shadow=0;strokeWidth=1;" vertex="1" parent="1">
          <mxGeometry x="250" y="220" width="220" height="140" as="geometry">
            <mxRectangle x="230" y="140" width="160" height="26" as="alternateBounds" />
          </mxGeometry>
        </mxCell>
        <mxCell id="Kes9Ymy6bMvkCFtG6t-n-33" value="-Id : int" style="text;align=left;verticalAlign=top;spacingLeft=4;spacingRight=4;overflow=hidden;rotatable=0;points=[[0,0.5],[1,0.5]];portConstraint=eastwest;fontStyle=4" vertex="1" parent="Kes9Ymy6bMvkCFtG6t-n-32">
          <mxGeometry y="26" width="220" height="26" as="geometry" />
        </mxCell>
        <mxCell id="Kes9Ymy6bMvkCFtG6t-n-34" value="+Nom Prenom de l&#39;employé: String" style="text;align=left;verticalAlign=top;spacingLeft=4;spacingRight=4;overflow=hidden;rotatable=0;points=[[0,0.5],[1,0.5]];portConstraint=eastwest;" vertex="1" parent="Kes9Ymy6bMvkCFtG6t-n-32">
          <mxGeometry y="52" width="220" height="26" as="geometry" />
        </mxCell>
        <mxCell id="Kes9Ymy6bMvkCFtG6t-n-35" value="" style="endArrow=classic;html=1;entryX=0.982;entryY=0;entryDx=0;entryDy=0;exitX=1;exitY=0.5;exitDx=0;exitDy=0;entryPerimeter=0;" edge="1" parent="Kes9Ymy6bMvkCFtG6t-n-32" source="Kes9Ymy6bMvkCFtG6t-n-34" target="Kes9Ymy6bMvkCFtG6t-n-33">
          <mxGeometry width="50" height="50" relative="1" as="geometry">
            <mxPoint x="320" y="29" as="sourcePoint" />
            <mxPoint x="140" y="320" as="targetPoint" />
            <Array as="points">
              <mxPoint x="320" y="65" />
              <mxPoint x="320" y="26" />
            </Array>
          </mxGeometry>
        </mxCell>
        <mxCell id="Kes9Ymy6bMvkCFtG6t-n-36" value="+Coordonnées Adresse : String" style="text;align=left;verticalAlign=top;spacingLeft=4;spacingRight=4;overflow=hidden;rotatable=0;points=[[0,0.5],[1,0.5]];portConstraint=eastwest;" vertex="1" parent="Kes9Ymy6bMvkCFtG6t-n-32">
          <mxGeometry y="78" width="220" height="26" as="geometry" />
        </mxCell>
        <mxCell id="Kes9Ymy6bMvkCFtG6t-n-165" value="+Numéro:String " style="text;align=left;verticalAlign=top;spacingLeft=4;spacingRight=4;overflow=hidden;rotatable=0;points=[[0,0.5],[1,0.5]];portConstraint=eastwest;" vertex="1" parent="Kes9Ymy6bMvkCFtG6t-n-32">
          <mxGeometry y="104" width="220" height="26" as="geometry" />
        </mxCell>
        <mxCell id="Kes9Ymy6bMvkCFtG6t-n-37" value="Produit" style="swimlane;fontStyle=2;align=center;verticalAlign=top;childLayout=stackLayout;horizontal=1;startSize=26;horizontalStack=0;resizeParent=1;resizeLast=0;collapsible=1;marginBottom=0;rounded=0;shadow=0;strokeWidth=1;" vertex="1" parent="1">
          <mxGeometry x="550" y="664" width="170" height="130" as="geometry">
            <mxRectangle x="230" y="140" width="160" height="26" as="alternateBounds" />
          </mxGeometry>
        </mxCell>
        <mxCell id="Kes9Ymy6bMvkCFtG6t-n-38" value="-Nom du produit : String" style="text;align=left;verticalAlign=top;spacingLeft=4;spacingRight=4;overflow=hidden;rotatable=0;points=[[0,0.5],[1,0.5]];portConstraint=eastwest;fontStyle=4" vertex="1" parent="Kes9Ymy6bMvkCFtG6t-n-37">
          <mxGeometry y="26" width="170" height="26" as="geometry" />
        </mxCell>
        <mxCell id="Kes9Ymy6bMvkCFtG6t-n-39" value="+Date péremption : Date" style="text;align=left;verticalAlign=top;spacingLeft=4;spacingRight=4;overflow=hidden;rotatable=0;points=[[0,0.5],[1,0.5]];portConstraint=eastwest;" vertex="1" parent="Kes9Ymy6bMvkCFtG6t-n-37">
          <mxGeometry y="52" width="170" height="26" as="geometry" />
        </mxCell>
        <mxCell id="Kes9Ymy6bMvkCFtG6t-n-40" value="+Nom du fournisseur :String" style="text;align=left;verticalAlign=top;spacingLeft=4;spacingRight=4;overflow=hidden;rotatable=0;points=[[0,0.5],[1,0.5]];portConstraint=eastwest;" vertex="1" parent="Kes9Ymy6bMvkCFtG6t-n-37">
          <mxGeometry y="78" width="170" height="26" as="geometry" />
        </mxCell>
        <mxCell id="Kes9Ymy6bMvkCFtG6t-n-41" value="+Nombre de produit : int" style="text;align=left;verticalAlign=top;spacingLeft=4;spacingRight=4;overflow=hidden;rotatable=0;points=[[0,0.5],[1,0.5]];portConstraint=eastwest;" vertex="1" parent="Kes9Ymy6bMvkCFtG6t-n-37">
          <mxGeometry y="104" width="170" height="26" as="geometry" />
        </mxCell>
        <mxCell id="Kes9Ymy6bMvkCFtG6t-n-45" value="Ingrédient particulier" style="swimlane;fontStyle=2;align=center;verticalAlign=top;childLayout=stackLayout;horizontal=1;startSize=26;horizontalStack=0;resizeParent=1;resizeLast=0;collapsible=1;marginBottom=0;rounded=0;shadow=0;strokeWidth=1;" vertex="1" parent="1">
          <mxGeometry x="720" y="595" width="170" height="54" as="geometry">
            <mxRectangle x="230" y="140" width="160" height="26" as="alternateBounds" />
          </mxGeometry>
        </mxCell>
        <mxCell id="Kes9Ymy6bMvkCFtG6t-n-46" value="+Type d&#39;ingrédient : String" style="text;html=1;strokeColor=none;fillColor=none;align=left;verticalAlign=middle;whiteSpace=wrap;rounded=0;" vertex="1" parent="Kes9Ymy6bMvkCFtG6t-n-45">
          <mxGeometry y="26" width="170" height="24" as="geometry" />
        </mxCell>
        <mxCell id="Kes9Ymy6bMvkCFtG6t-n-51" value="Charcuterie" style="swimlane;fontStyle=2;align=center;verticalAlign=top;childLayout=stackLayout;horizontal=1;startSize=26;horizontalStack=0;resizeParent=1;resizeLast=0;collapsible=1;marginBottom=0;rounded=0;shadow=0;strokeWidth=1;" vertex="1" parent="1">
          <mxGeometry x="750" y="703" width="180" height="60" as="geometry">
            <mxRectangle x="230" y="140" width="160" height="26" as="alternateBounds" />
          </mxGeometry>
        </mxCell>
        <mxCell id="Kes9Ymy6bMvkCFtG6t-n-52" value="+Provenance animal : String" style="text;align=left;verticalAlign=top;spacingLeft=4;spacingRight=4;overflow=hidden;rotatable=0;points=[[0,0.5],[1,0.5]];portConstraint=eastwest;" vertex="1" parent="Kes9Ymy6bMvkCFtG6t-n-51">
          <mxGeometry y="26" width="180" height="28" as="geometry" />
        </mxCell>
        <mxCell id="Kes9Ymy6bMvkCFtG6t-n-55" value="Charcuterie maison" style="swimlane;fontStyle=2;align=center;verticalAlign=top;childLayout=stackLayout;horizontal=1;startSize=26;horizontalStack=0;resizeParent=1;resizeLast=0;collapsible=1;marginBottom=0;rounded=0;shadow=0;strokeWidth=1;" vertex="1" parent="1">
          <mxGeometry x="990" y="450" width="160" height="74" as="geometry">
            <mxRectangle x="230" y="140" width="160" height="26" as="alternateBounds" />
          </mxGeometry>
        </mxCell>
        <mxCell id="Kes9Ymy6bMvkCFtG6t-n-56" value="Nom charcuterie : String" style="text;align=left;verticalAlign=top;spacingLeft=4;spacingRight=4;overflow=hidden;rotatable=0;points=[[0,0.5],[1,0.5]];portConstraint=eastwest;fontStyle=4" vertex="1" parent="Kes9Ymy6bMvkCFtG6t-n-55">
          <mxGeometry y="26" width="160" height="24" as="geometry" />
        </mxCell>
        <mxCell id="Kes9Ymy6bMvkCFtG6t-n-57" value="Nombre charcuterie : int" style="text;align=left;verticalAlign=top;spacingLeft=4;spacingRight=4;overflow=hidden;rotatable=0;points=[[0,0.5],[1,0.5]];portConstraint=eastwest;fontStyle=0" vertex="1" parent="Kes9Ymy6bMvkCFtG6t-n-55">
          <mxGeometry y="50" width="160" height="24" as="geometry" />
        </mxCell>
        <mxCell id="Kes9Ymy6bMvkCFtG6t-n-62" value="Produit alimentaire" style="swimlane;fontStyle=2;align=center;verticalAlign=top;childLayout=stackLayout;horizontal=1;startSize=26;horizontalStack=0;resizeParent=1;resizeLast=0;collapsible=1;marginBottom=0;rounded=0;shadow=0;strokeWidth=1;" vertex="1" parent="1">
          <mxGeometry x="900" y="595" width="140" height="54" as="geometry">
            <mxRectangle x="230" y="140" width="160" height="26" as="alternateBounds" />
          </mxGeometry>
        </mxCell>
        <mxCell id="Kes9Ymy6bMvkCFtG6t-n-63" value="+Type d&#39;aliment : String" style="text;align=left;verticalAlign=top;spacingLeft=4;spacingRight=4;overflow=hidden;rotatable=0;points=[[0,0.5],[1,0.5]];portConstraint=eastwest;" vertex="1" parent="Kes9Ymy6bMvkCFtG6t-n-62">
          <mxGeometry y="26" width="140" height="28" as="geometry" />
        </mxCell>
        <mxCell id="Kes9Ymy6bMvkCFtG6t-n-68" value="Commande" style="swimlane;fontStyle=2;align=center;verticalAlign=top;childLayout=stackLayout;horizontal=1;startSize=26;horizontalStack=0;resizeParent=1;resizeLast=0;collapsible=1;marginBottom=0;rounded=0;shadow=0;strokeWidth=1;" vertex="1" parent="1">
          <mxGeometry x="630" y="50" width="210" height="210" as="geometry">
            <mxRectangle x="230" y="140" width="160" height="26" as="alternateBounds" />
          </mxGeometry>
        </mxCell>
        <mxCell id="Kes9Ymy6bMvkCFtG6t-n-69" value="-Id : int" style="text;align=left;verticalAlign=top;spacingLeft=4;spacingRight=4;overflow=hidden;rotatable=0;points=[[0,0.5],[1,0.5]];portConstraint=eastwest;fontStyle=4" vertex="1" parent="Kes9Ymy6bMvkCFtG6t-n-68">
          <mxGeometry y="26" width="210" height="24" as="geometry" />
        </mxCell>
        <mxCell id="Kes9Ymy6bMvkCFtG6t-n-70" value="+Coordonnées client : Array&lt;String&gt;" style="text;align=left;verticalAlign=top;spacingLeft=4;spacingRight=4;overflow=hidden;rotatable=0;points=[[0,0.5],[1,0.5]];portConstraint=eastwest;" vertex="1" parent="Kes9Ymy6bMvkCFtG6t-n-68">
          <mxGeometry y="50" width="210" height="20" as="geometry" />
        </mxCell>
        <mxCell id="Kes9Ymy6bMvkCFtG6t-n-71" value="+Heure Date commande : Date" style="text;align=left;verticalAlign=top;spacingLeft=4;spacingRight=4;overflow=hidden;rotatable=0;points=[[0,0.5],[1,0.5]];portConstraint=eastwest;" vertex="1" parent="Kes9Ymy6bMvkCFtG6t-n-68">
          <mxGeometry y="70" width="210" height="22" as="geometry" />
        </mxCell>
        <mxCell id="Kes9Ymy6bMvkCFtG6t-n-72" value="+Prix total :float" style="text;align=left;verticalAlign=top;spacingLeft=4;spacingRight=4;overflow=hidden;rotatable=0;points=[[0,0.5],[1,0.5]];portConstraint=eastwest;" vertex="1" parent="Kes9Ymy6bMvkCFtG6t-n-68">
          <mxGeometry y="92" width="210" height="22" as="geometry" />
        </mxCell>
        <mxCell id="Kes9Ymy6bMvkCFtG6t-n-73" value="+Etat du paiement : String" style="text;align=left;verticalAlign=top;spacingLeft=4;spacingRight=4;overflow=hidden;rotatable=0;points=[[0,0.5],[1,0.5]];portConstraint=eastwest;" vertex="1" parent="Kes9Ymy6bMvkCFtG6t-n-68">
          <mxGeometry y="114" width="210" height="22" as="geometry" />
        </mxCell>
        <mxCell id="Kes9Ymy6bMvkCFtG6t-n-81" value="Menu" style="swimlane;fontStyle=2;align=center;verticalAlign=top;childLayout=stackLayout;horizontal=1;startSize=26;horizontalStack=0;resizeParent=1;resizeLast=0;collapsible=1;marginBottom=0;rounded=0;shadow=0;strokeWidth=1;" vertex="1" parent="1">
          <mxGeometry x="790" y="374.5" width="190" height="149.5" as="geometry">
            <mxRectangle x="230" y="140" width="160" height="26" as="alternateBounds" />
          </mxGeometry>
        </mxCell>
        <mxCell id="Kes9Ymy6bMvkCFtG6t-n-82" value="Id : int" style="text;align=left;verticalAlign=top;spacingLeft=4;spacingRight=4;overflow=hidden;rotatable=0;points=[[0,0.5],[1,0.5]];portConstraint=eastwest;fontStyle=4" vertex="1" parent="Kes9Ymy6bMvkCFtG6t-n-81">
          <mxGeometry y="26" width="190" height="24" as="geometry" />
        </mxCell>
        <mxCell id="Kes9Ymy6bMvkCFtG6t-n-83" value="+Date disponibilité : Date" style="text;align=left;verticalAlign=top;spacingLeft=4;spacingRight=4;overflow=hidden;rotatable=0;points=[[0,0.5],[1,0.5]];portConstraint=eastwest;" vertex="1" parent="Kes9Ymy6bMvkCFtG6t-n-81">
          <mxGeometry y="50" width="190" height="22" as="geometry" />
        </mxCell>
        <mxCell id="Kes9Ymy6bMvkCFtG6t-n-84" value="+Prix unitaire : Float" style="text;align=left;verticalAlign=top;spacingLeft=4;spacingRight=4;overflow=hidden;rotatable=0;points=[[0,0.5],[1,0.5]];portConstraint=eastwest;" vertex="1" parent="Kes9Ymy6bMvkCFtG6t-n-81">
          <mxGeometry y="72" width="190" height="22" as="geometry" />
        </mxCell>
        <mxCell id="Kes9Ymy6bMvkCFtG6t-n-85" value="+Nombre de commande min: int" style="text;align=left;verticalAlign=top;spacingLeft=4;spacingRight=4;overflow=hidden;rotatable=0;points=[[0,0.5],[1,0.5]];portConstraint=eastwest;" vertex="1" parent="Kes9Ymy6bMvkCFtG6t-n-81">
          <mxGeometry y="94" width="190" height="22" as="geometry" />
        </mxCell>
        <mxCell id="Kes9Ymy6bMvkCFtG6t-n-93" value="Plat préparés" style="swimlane;fontStyle=2;align=center;verticalAlign=top;childLayout=stackLayout;horizontal=1;startSize=26;horizontalStack=0;resizeParent=1;resizeLast=0;collapsible=1;marginBottom=0;rounded=0;shadow=0;strokeWidth=1;" vertex="1" parent="1">
          <mxGeometry x="610" y="450" width="160" height="74" as="geometry">
            <mxRectangle x="230" y="140" width="160" height="26" as="alternateBounds" />
          </mxGeometry>
        </mxCell>
        <mxCell id="Kes9Ymy6bMvkCFtG6t-n-94" value="-Nom charcuterie : String" style="text;align=left;verticalAlign=top;spacingLeft=4;spacingRight=4;overflow=hidden;rotatable=0;points=[[0,0.5],[1,0.5]];portConstraint=eastwest;fontStyle=4" vertex="1" parent="Kes9Ymy6bMvkCFtG6t-n-93">
          <mxGeometry y="26" width="160" height="24" as="geometry" />
        </mxCell>
        <mxCell id="Kes9Ymy6bMvkCFtG6t-n-95" value="+Nombre charcuterie : int" style="text;align=left;verticalAlign=top;spacingLeft=4;spacingRight=4;overflow=hidden;rotatable=0;points=[[0,0.5],[1,0.5]];portConstraint=eastwest;fontStyle=0" vertex="1" parent="Kes9Ymy6bMvkCFtG6t-n-93">
          <mxGeometry y="50" width="160" height="24" as="geometry" />
        </mxCell>
        <mxCell id="Kes9Ymy6bMvkCFtG6t-n-108" value="Voiture" style="swimlane;fontStyle=2;align=center;verticalAlign=top;childLayout=stackLayout;horizontal=1;startSize=26;horizontalStack=0;resizeParent=1;resizeLast=0;collapsible=1;marginBottom=0;rounded=0;shadow=0;strokeWidth=1;" vertex="1" parent="1">
          <mxGeometry x="980" y="170" width="160" height="100" as="geometry">
            <mxRectangle x="230" y="140" width="160" height="26" as="alternateBounds" />
          </mxGeometry>
        </mxCell>
        <mxCell id="Kes9Ymy6bMvkCFtG6t-n-109" value="-Id : int" style="text;align=left;verticalAlign=top;spacingLeft=4;spacingRight=4;overflow=hidden;rotatable=0;points=[[0,0.5],[1,0.5]];portConstraint=eastwest;fontStyle=4" vertex="1" parent="Kes9Ymy6bMvkCFtG6t-n-108">
          <mxGeometry y="26" width="160" height="24" as="geometry" />
        </mxCell>
        <mxCell id="Kes9Ymy6bMvkCFtG6t-n-110" value="+Disponible : boolean" style="text;align=left;verticalAlign=top;spacingLeft=4;spacingRight=4;overflow=hidden;rotatable=0;points=[[0,0.5],[1,0.5]];portConstraint=eastwest;" vertex="1" parent="Kes9Ymy6bMvkCFtG6t-n-108">
          <mxGeometry y="50" width="160" height="22" as="geometry" />
        </mxCell>
        <mxCell id="Kes9Ymy6bMvkCFtG6t-n-111" value="+Kilométrages : int" style="text;align=left;verticalAlign=top;spacingLeft=4;spacingRight=4;overflow=hidden;rotatable=0;points=[[0,0.5],[1,0.5]];portConstraint=eastwest;" vertex="1" parent="Kes9Ymy6bMvkCFtG6t-n-108">
          <mxGeometry y="72" width="160" height="22" as="geometry" />
        </mxCell>
        <mxCell id="Kes9Ymy6bMvkCFtG6t-n-112" value="Livraison" style="swimlane;fontStyle=2;align=center;verticalAlign=top;childLayout=stackLayout;horizontal=1;startSize=26;horizontalStack=0;resizeParent=1;resizeLast=0;collapsible=1;marginBottom=0;rounded=0;shadow=0;strokeWidth=1;" vertex="1" parent="1">
          <mxGeometry x="890" y="50" width="160" height="80" as="geometry">
            <mxRectangle x="230" y="140" width="160" height="26" as="alternateBounds" />
          </mxGeometry>
        </mxCell>
        <mxCell id="Kes9Ymy6bMvkCFtG6t-n-113" value="-Id : int" style="text;align=left;verticalAlign=top;spacingLeft=4;spacingRight=4;overflow=hidden;rotatable=0;points=[[0,0.5],[1,0.5]];portConstraint=eastwest;fontStyle=4" vertex="1" parent="Kes9Ymy6bMvkCFtG6t-n-112">
          <mxGeometry y="26" width="160" height="24" as="geometry" />
        </mxCell>
        <mxCell id="Kes9Ymy6bMvkCFtG6t-n-114" value="+Date de livraison : Date" style="text;align=left;verticalAlign=top;spacingLeft=4;spacingRight=4;overflow=hidden;rotatable=0;points=[[0,0.5],[1,0.5]];portConstraint=eastwest;" vertex="1" parent="Kes9Ymy6bMvkCFtG6t-n-112">
          <mxGeometry y="50" width="160" height="22" as="geometry" />
        </mxCell>
        <mxCell id="Kes9Ymy6bMvkCFtG6t-n-124" value="Horaire Travail" style="swimlane;fontStyle=2;align=center;verticalAlign=top;childLayout=stackLayout;horizontal=1;startSize=26;horizontalStack=0;resizeParent=1;resizeLast=0;collapsible=1;marginBottom=0;rounded=0;shadow=0;strokeWidth=1;" vertex="1" parent="1">
          <mxGeometry x="30" y="60" width="160" height="80" as="geometry">
            <mxRectangle x="230" y="140" width="160" height="26" as="alternateBounds" />
          </mxGeometry>
        </mxCell>
        <mxCell id="Kes9Ymy6bMvkCFtG6t-n-125" value="Id : int" style="text;align=left;verticalAlign=top;spacingLeft=4;spacingRight=4;overflow=hidden;rotatable=0;points=[[0,0.5],[1,0.5]];portConstraint=eastwest;fontStyle=4" vertex="1" parent="Kes9Ymy6bMvkCFtG6t-n-124">
          <mxGeometry y="26" width="160" height="24" as="geometry" />
        </mxCell>
        <mxCell id="Kes9Ymy6bMvkCFtG6t-n-126" value="Date : Date" style="text;align=left;verticalAlign=top;spacingLeft=4;spacingRight=4;overflow=hidden;rotatable=0;points=[[0,0.5],[1,0.5]];portConstraint=eastwest;" vertex="1" parent="Kes9Ymy6bMvkCFtG6t-n-124">
          <mxGeometry y="50" width="160" height="22" as="geometry" />
        </mxCell>
        <mxCell id="Kes9Ymy6bMvkCFtG6t-n-127" value="Poste de travail" style="swimlane;fontStyle=2;align=center;verticalAlign=top;childLayout=stackLayout;horizontal=1;startSize=26;horizontalStack=0;resizeParent=1;resizeLast=0;collapsible=1;marginBottom=0;rounded=0;shadow=0;strokeWidth=1;" vertex="1" parent="1">
          <mxGeometry x="40" y="200" width="160" height="80" as="geometry">
            <mxRectangle x="230" y="140" width="160" height="26" as="alternateBounds" />
          </mxGeometry>
        </mxCell>
        <mxCell id="Kes9Ymy6bMvkCFtG6t-n-128" value="Id : int" style="text;align=left;verticalAlign=top;spacingLeft=4;spacingRight=4;overflow=hidden;rotatable=0;points=[[0,0.5],[1,0.5]];portConstraint=eastwest;fontStyle=4" vertex="1" parent="Kes9Ymy6bMvkCFtG6t-n-127">
          <mxGeometry y="26" width="160" height="24" as="geometry" />
        </mxCell>
        <mxCell id="Kes9Ymy6bMvkCFtG6t-n-129" value="Nom de poste : String" style="text;align=left;verticalAlign=top;spacingLeft=4;spacingRight=4;overflow=hidden;rotatable=0;points=[[0,0.5],[1,0.5]];portConstraint=eastwest;" vertex="1" parent="Kes9Ymy6bMvkCFtG6t-n-127">
          <mxGeometry y="50" width="160" height="22" as="geometry" />
        </mxCell>
        <mxCell id="Kes9Ymy6bMvkCFtG6t-n-130" value="" style="endArrow=none;html=1;entryX=0.5;entryY=1;entryDx=0;entryDy=0;exitX=0;exitY=0;exitDx=0;exitDy=0;" edge="1" parent="1" source="Kes9Ymy6bMvkCFtG6t-n-133" target="Kes9Ymy6bMvkCFtG6t-n-124">
          <mxGeometry width="50" height="50" relative="1" as="geometry">
            <mxPoint x="280" y="180" as="sourcePoint" />
            <mxPoint x="610" y="170" as="targetPoint" />
          </mxGeometry>
        </mxCell>
        <mxCell id="Kes9Ymy6bMvkCFtG6t-n-131" value="" style="endArrow=none;html=1;exitX=1;exitY=-0.091;exitDx=0;exitDy=0;exitPerimeter=0;entryX=0;entryY=0.5;entryDx=0;entryDy=0;" edge="1" parent="1" source="Kes9Ymy6bMvkCFtG6t-n-129" target="Kes9Ymy6bMvkCFtG6t-n-33">
          <mxGeometry width="50" height="50" relative="1" as="geometry">
            <mxPoint x="560" y="220" as="sourcePoint" />
            <mxPoint x="480" y="280" as="targetPoint" />
          </mxGeometry>
        </mxCell>
        <mxCell id="Kes9Ymy6bMvkCFtG6t-n-132" value="1,*" style="text;html=1;strokeColor=none;fillColor=none;align=center;verticalAlign=middle;whiteSpace=wrap;rounded=0;" vertex="1" parent="1">
          <mxGeometry x="180" y="100" width="40" height="20" as="geometry" />
        </mxCell>
        <mxCell id="Kes9Ymy6bMvkCFtG6t-n-133" value="" style="rhombus;whiteSpace=wrap;html=1;" vertex="1" parent="1">
          <mxGeometry x="270" y="188" width="30" height="30" as="geometry" />
        </mxCell>
        <mxCell id="Kes9Ymy6bMvkCFtG6t-n-134" value="" style="endArrow=none;html=1;exitX=1;exitY=0;exitDx=0;exitDy=0;entryX=0;entryY=1;entryDx=0;entryDy=0;" edge="1" parent="1" source="Kes9Ymy6bMvkCFtG6t-n-127" target="Kes9Ymy6bMvkCFtG6t-n-133">
          <mxGeometry width="50" height="50" relative="1" as="geometry">
            <mxPoint x="560" y="420" as="sourcePoint" />
            <mxPoint x="610" y="370" as="targetPoint" />
          </mxGeometry>
        </mxCell>
        <mxCell id="Kes9Ymy6bMvkCFtG6t-n-136" value="Planning de l&#39;employé" style="text;html=1;strokeColor=none;fillColor=none;align=center;verticalAlign=middle;whiteSpace=wrap;rounded=0;" vertex="1" parent="1">
          <mxGeometry x="190" y="176" width="140" height="20" as="geometry" />
        </mxCell>
        <mxCell id="Kes9Ymy6bMvkCFtG6t-n-137" style="edgeStyle=orthogonalEdgeStyle;rounded=0;orthogonalLoop=1;jettySize=auto;html=1;exitX=0.5;exitY=1;exitDx=0;exitDy=0;" edge="1" parent="1">
          <mxGeometry relative="1" as="geometry">
            <mxPoint x="240" y="290" as="sourcePoint" />
            <mxPoint x="240" y="290" as="targetPoint" />
          </mxGeometry>
        </mxCell>
        <mxCell id="Kes9Ymy6bMvkCFtG6t-n-140" value="1,*" style="text;html=1;strokeColor=none;fillColor=none;align=center;verticalAlign=middle;whiteSpace=wrap;rounded=0;" vertex="1" parent="1">
          <mxGeometry x="220" y="243" width="40" height="20" as="geometry" />
        </mxCell>
        <mxCell id="Kes9Ymy6bMvkCFtG6t-n-141" value="1,*" style="text;html=1;strokeColor=none;fillColor=none;align=center;verticalAlign=middle;whiteSpace=wrap;rounded=0;" vertex="1" parent="1">
          <mxGeometry x="215" y="193" width="40" height="20" as="geometry" />
        </mxCell>
        <mxCell id="Kes9Ymy6bMvkCFtG6t-n-143" value="1,1" style="text;html=1;strokeColor=none;fillColor=none;align=center;verticalAlign=middle;whiteSpace=wrap;rounded=0;" vertex="1" parent="1">
          <mxGeometry x="235" y="80" width="40" height="20" as="geometry" />
        </mxCell>
        <mxCell id="Kes9Ymy6bMvkCFtG6t-n-157" value="" style="endArrow=none;dashed=1;html=1;entryX=0.445;entryY=1.027;entryDx=0;entryDy=0;entryPerimeter=0;exitX=0.304;exitY=0.055;exitDx=0;exitDy=0;exitPerimeter=0;" edge="1" parent="1" source="Kes9Ymy6bMvkCFtG6t-n-146" target="Kes9Ymy6bMvkCFtG6t-n-162">
          <mxGeometry width="50" height="50" relative="1" as="geometry">
            <mxPoint x="560" y="520" as="sourcePoint" />
            <mxPoint x="610" y="470" as="targetPoint" />
          </mxGeometry>
        </mxCell>
        <mxCell id="Kes9Ymy6bMvkCFtG6t-n-161" value="" style="endArrow=open;endFill=1;endSize=12;html=1;entryX=1.007;entryY=0.681;entryDx=0;entryDy=0;entryPerimeter=0;exitX=0;exitY=0.574;exitDx=0;exitDy=0;exitPerimeter=0;" edge="1" parent="1" source="Kes9Ymy6bMvkCFtG6t-n-146" target="Kes9Ymy6bMvkCFtG6t-n-160">
          <mxGeometry width="160" relative="1" as="geometry">
            <mxPoint x="575" y="694" as="sourcePoint" />
            <mxPoint x="660" y="490" as="targetPoint" />
          </mxGeometry>
        </mxCell>
      </root>
    </mxGraphModel>
  </diagram>
</mxfile>
